<mxfile host="app.diagrams.net" modified="2023-06-13T16:30:32.478Z" agent="Mozilla/5.0 (Windows NT 10.0; Win64; x64) AppleWebKit/537.36 (KHTML, like Gecko) Chrome/109.0.0.0 Safari/537.36" etag="WMg6nCFv4qKUfsCInyMq" version="21.3.8" type="device">
  <diagram id="C5RBs43oDa-KdzZeNtuy" name="Page-1">
    <mxGraphModel dx="1707" dy="395" grid="1" gridSize="10" guides="1" tooltips="1" connect="1" arrows="1" fold="1" page="1" pageScale="1" pageWidth="827" pageHeight="1169" background="#ffffff" math="0" shadow="0">
      <root>
        <mxCell id="WIyWlLk6GJQsqaUBKTNV-0" />
        <mxCell id="WIyWlLk6GJQsqaUBKTNV-1" parent="WIyWlLk6GJQsqaUBKTNV-0" />
        <mxCell id="Yf7VJKeYtl0pjoT2xKIb-0" value="&lt;b&gt;Client&lt;/b&gt;" style="html=1;" parent="WIyWlLk6GJQsqaUBKTNV-1" vertex="1">
          <mxGeometry x="90" y="70" width="100" height="40" as="geometry" />
        </mxCell>
        <mxCell id="Yf7VJKeYtl0pjoT2xKIb-1" value="BaseDataReader" style="swimlane;fontStyle=3;align=center;verticalAlign=top;childLayout=stackLayout;horizontal=1;startSize=26;horizontalStack=0;resizeParent=1;resizeParentMax=0;resizeLast=0;collapsible=1;marginBottom=0;" parent="WIyWlLk6GJQsqaUBKTNV-1" vertex="1">
          <mxGeometry x="60" y="160" width="160" height="70" as="geometry" />
        </mxCell>
        <mxCell id="Yf7VJKeYtl0pjoT2xKIb-3" value="" style="line;strokeWidth=1;fillColor=none;align=left;verticalAlign=middle;spacingTop=-1;spacingLeft=3;spacingRight=3;rotatable=0;labelPosition=right;points=[];portConstraint=eastwest;" parent="Yf7VJKeYtl0pjoT2xKIb-1" vertex="1">
          <mxGeometry y="26" width="160" height="44" as="geometry" />
        </mxCell>
        <mxCell id="Yf7VJKeYtl0pjoT2xKIb-6" value="+&amp;nbsp;read&lt;span style=&quot;background-color: initial;&quot;&gt;()&lt;/span&gt;" style="text;html=1;align=left;verticalAlign=middle;resizable=0;points=[];autosize=1;strokeColor=none;fillColor=none;" parent="WIyWlLk6GJQsqaUBKTNV-1" vertex="1">
          <mxGeometry x="61" y="205" width="70" height="30" as="geometry" />
        </mxCell>
        <mxCell id="Yf7VJKeYtl0pjoT2xKIb-7" value="" style="endArrow=open;endFill=1;endSize=12;html=1;rounded=0;exitX=0.5;exitY=1;exitDx=0;exitDy=0;entryX=0.5;entryY=0;entryDx=0;entryDy=0;" parent="WIyWlLk6GJQsqaUBKTNV-1" source="Yf7VJKeYtl0pjoT2xKIb-0" target="Yf7VJKeYtl0pjoT2xKIb-1" edge="1">
          <mxGeometry width="160" relative="1" as="geometry">
            <mxPoint x="330" y="380" as="sourcePoint" />
            <mxPoint x="490" y="380" as="targetPoint" />
          </mxGeometry>
        </mxCell>
        <mxCell id="Yf7VJKeYtl0pjoT2xKIb-8" value="DataBaseReader" style="swimlane;fontStyle=1;align=center;verticalAlign=top;childLayout=stackLayout;horizontal=1;startSize=26;horizontalStack=0;resizeParent=1;resizeParentMax=0;resizeLast=0;collapsible=1;marginBottom=0;" parent="WIyWlLk6GJQsqaUBKTNV-1" vertex="1">
          <mxGeometry x="-29" y="310" width="160" height="56" as="geometry">
            <mxRectangle x="-29" y="310" width="140" height="30" as="alternateBounds" />
          </mxGeometry>
        </mxCell>
        <mxCell id="qSl6JbTQ16lLAXaDuhxu-6" value="&lt;div style=&quot;font-family: Consolas, &amp;quot;Courier New&amp;quot;, monospace; font-size: 14px; line-height: 19px;&quot;&gt;&lt;/div&gt;+ read(): BaseDataReader" style="text;html=1;align=left;verticalAlign=middle;resizable=0;points=[];autosize=1;strokeColor=none;fillColor=none;" vertex="1" parent="Yf7VJKeYtl0pjoT2xKIb-8">
          <mxGeometry y="26" width="160" height="30" as="geometry" />
        </mxCell>
        <mxCell id="Yf7VJKeYtl0pjoT2xKIb-12" value="" style="endArrow=block;endSize=16;endFill=0;html=1;rounded=0;exitX=0.5;exitY=0;exitDx=0;exitDy=0;" parent="WIyWlLk6GJQsqaUBKTNV-1" source="Yf7VJKeYtl0pjoT2xKIb-8" edge="1">
          <mxGeometry y="70" width="160" relative="1" as="geometry">
            <mxPoint x="330" y="320" as="sourcePoint" />
            <mxPoint x="141" y="230" as="targetPoint" />
            <mxPoint as="offset" />
          </mxGeometry>
        </mxCell>
        <mxCell id="Yf7VJKeYtl0pjoT2xKIb-13" value="BaseSender" style="swimlane;fontStyle=3;align=center;verticalAlign=top;childLayout=stackLayout;horizontal=1;startSize=26;horizontalStack=0;resizeParent=1;resizeParentMax=0;resizeLast=0;collapsible=1;marginBottom=0;" parent="WIyWlLk6GJQsqaUBKTNV-1" vertex="1">
          <mxGeometry x="490" y="160" width="220" height="130" as="geometry" />
        </mxCell>
        <mxCell id="Yf7VJKeYtl0pjoT2xKIb-15" value="" style="line;strokeWidth=1;fillColor=none;align=left;verticalAlign=middle;spacingTop=-1;spacingLeft=3;spacingRight=3;rotatable=0;labelPosition=right;points=[];portConstraint=eastwest;" parent="Yf7VJKeYtl0pjoT2xKIb-13" vertex="1">
          <mxGeometry y="26" width="220" height="24" as="geometry" />
        </mxCell>
        <mxCell id="Yf7VJKeYtl0pjoT2xKIb-16" value="+ set_data_reader():BaseDataReader&#xa;" style="text;strokeColor=none;fillColor=none;align=left;verticalAlign=top;spacingLeft=4;spacingRight=4;overflow=hidden;rotatable=0;points=[[0,0.5],[1,0.5]];portConstraint=eastwest;strokeWidth=2;" parent="Yf7VJKeYtl0pjoT2xKIb-13" vertex="1">
          <mxGeometry y="50" width="220" height="40" as="geometry" />
        </mxCell>
        <mxCell id="qSl6JbTQ16lLAXaDuhxu-0" value="+ send():BaseDataReader" style="text;strokeColor=default;fillColor=none;align=left;verticalAlign=top;spacingLeft=4;spacingRight=4;overflow=hidden;rotatable=0;points=[[0,0.5],[1,0.5]];portConstraint=eastwest;" vertex="1" parent="Yf7VJKeYtl0pjoT2xKIb-13">
          <mxGeometry y="90" width="220" height="40" as="geometry" />
        </mxCell>
        <mxCell id="Yf7VJKeYtl0pjoT2xKIb-18" value="" style="endArrow=diamondThin;endFill=0;endSize=24;html=1;rounded=0;entryX=1;entryY=0.5;entryDx=0;entryDy=0;" parent="WIyWlLk6GJQsqaUBKTNV-1" target="Yf7VJKeYtl0pjoT2xKIb-1" edge="1">
          <mxGeometry width="160" relative="1" as="geometry">
            <mxPoint x="490" y="194" as="sourcePoint" />
            <mxPoint x="490" y="320" as="targetPoint" />
          </mxGeometry>
        </mxCell>
        <mxCell id="Yf7VJKeYtl0pjoT2xKIb-23" value="EmailSender" style="swimlane;fontStyle=3;align=center;verticalAlign=top;childLayout=stackLayout;horizontal=1;startSize=30;horizontalStack=0;resizeParent=1;resizeParentMax=0;resizeLast=0;collapsible=1;marginBottom=0;" parent="WIyWlLk6GJQsqaUBKTNV-1" vertex="1">
          <mxGeometry x="370" y="360" width="160" height="94" as="geometry" />
        </mxCell>
        <mxCell id="Yf7VJKeYtl0pjoT2xKIb-24" value="" style="line;strokeWidth=1;fillColor=none;align=left;verticalAlign=middle;spacingTop=-1;spacingLeft=3;spacingRight=3;rotatable=0;labelPosition=right;points=[];portConstraint=eastwest;" parent="Yf7VJKeYtl0pjoT2xKIb-23" vertex="1">
          <mxGeometry y="30" width="160" height="24" as="geometry" />
        </mxCell>
        <mxCell id="Yf7VJKeYtl0pjoT2xKIb-25" value="+ send(): BaseDataReader" style="text;strokeColor=none;fillColor=none;align=left;verticalAlign=top;spacingLeft=4;spacingRight=4;overflow=hidden;rotatable=0;points=[[0,0.5],[1,0.5]];portConstraint=eastwest;" parent="Yf7VJKeYtl0pjoT2xKIb-23" vertex="1">
          <mxGeometry y="54" width="160" height="40" as="geometry" />
        </mxCell>
        <mxCell id="Yf7VJKeYtl0pjoT2xKIb-26" value="TelegramBotSender" style="swimlane;fontStyle=1;align=center;verticalAlign=top;childLayout=stackLayout;horizontal=1;startSize=26;horizontalStack=0;resizeParent=1;resizeParentMax=0;resizeLast=0;collapsible=1;marginBottom=0;" parent="WIyWlLk6GJQsqaUBKTNV-1" vertex="1">
          <mxGeometry x="600" y="360" width="160" height="90" as="geometry" />
        </mxCell>
        <mxCell id="Yf7VJKeYtl0pjoT2xKIb-27" value="" style="line;strokeWidth=1;fillColor=none;align=left;verticalAlign=middle;spacingTop=-1;spacingLeft=3;spacingRight=3;rotatable=0;labelPosition=right;points=[];portConstraint=eastwest;" parent="Yf7VJKeYtl0pjoT2xKIb-26" vertex="1">
          <mxGeometry y="26" width="160" height="24" as="geometry" />
        </mxCell>
        <mxCell id="Yf7VJKeYtl0pjoT2xKIb-28" value="+ send(): BaseDataReader" style="text;strokeColor=none;fillColor=none;align=left;verticalAlign=top;spacingLeft=4;spacingRight=4;overflow=hidden;rotatable=0;points=[[0,0.5],[1,0.5]];portConstraint=eastwest;" parent="Yf7VJKeYtl0pjoT2xKIb-26" vertex="1">
          <mxGeometry y="50" width="160" height="40" as="geometry" />
        </mxCell>
        <mxCell id="Yf7VJKeYtl0pjoT2xKIb-29" value="" style="endArrow=block;endSize=16;endFill=0;html=1;rounded=0;exitX=0.5;exitY=0;exitDx=0;exitDy=0;entryX=0.218;entryY=1.1;entryDx=0;entryDy=0;entryPerimeter=0;" parent="WIyWlLk6GJQsqaUBKTNV-1" source="Yf7VJKeYtl0pjoT2xKIb-23" target="qSl6JbTQ16lLAXaDuhxu-0" edge="1">
          <mxGeometry x="-0.1692" y="42" width="160" relative="1" as="geometry">
            <mxPoint x="330" y="320" as="sourcePoint" />
            <mxPoint x="535" y="250" as="targetPoint" />
            <Array as="points" />
            <mxPoint y="-1" as="offset" />
          </mxGeometry>
        </mxCell>
        <mxCell id="Yf7VJKeYtl0pjoT2xKIb-31" value="" style="endArrow=block;endSize=16;endFill=0;html=1;rounded=0;exitX=0.5;exitY=0;exitDx=0;exitDy=0;entryX=0.568;entryY=1.05;entryDx=0;entryDy=0;entryPerimeter=0;" parent="WIyWlLk6GJQsqaUBKTNV-1" source="Yf7VJKeYtl0pjoT2xKIb-26" target="qSl6JbTQ16lLAXaDuhxu-0" edge="1">
          <mxGeometry x="-0.1692" y="42" width="160" relative="1" as="geometry">
            <mxPoint x="460" y="340" as="sourcePoint" />
            <mxPoint x="590" y="270" as="targetPoint" />
            <Array as="points" />
            <mxPoint y="-1" as="offset" />
          </mxGeometry>
        </mxCell>
        <mxCell id="qSl6JbTQ16lLAXaDuhxu-4" value="" style="endArrow=block;endSize=16;endFill=0;html=1;rounded=0;exitX=0.463;exitY=0.033;exitDx=0;exitDy=0;exitPerimeter=0;" edge="1" parent="WIyWlLk6GJQsqaUBKTNV-1" target="Yf7VJKeYtl0pjoT2xKIb-3">
          <mxGeometry y="70" width="160" relative="1" as="geometry">
            <mxPoint x="214.07999999999993" y="311.98" as="sourcePoint" />
            <mxPoint x="360" y="180" as="targetPoint" />
            <mxPoint as="offset" />
          </mxGeometry>
        </mxCell>
        <mxCell id="qSl6JbTQ16lLAXaDuhxu-7" value="FileReader" style="swimlane;fontStyle=1;align=center;verticalAlign=top;childLayout=stackLayout;horizontal=1;startSize=26;horizontalStack=0;resizeParent=1;resizeParentMax=0;resizeLast=0;collapsible=1;marginBottom=0;" vertex="1" parent="WIyWlLk6GJQsqaUBKTNV-1">
          <mxGeometry x="150" y="310" width="160" height="56" as="geometry">
            <mxRectangle x="-29" y="310" width="140" height="30" as="alternateBounds" />
          </mxGeometry>
        </mxCell>
        <mxCell id="qSl6JbTQ16lLAXaDuhxu-8" value="&lt;div style=&quot;font-family: Consolas, &amp;quot;Courier New&amp;quot;, monospace; font-size: 14px; line-height: 19px;&quot;&gt;&lt;/div&gt;+ read(): BaseDataReader" style="text;html=1;align=left;verticalAlign=middle;resizable=0;points=[];autosize=1;strokeColor=none;fillColor=none;" vertex="1" parent="qSl6JbTQ16lLAXaDuhxu-7">
          <mxGeometry y="26" width="160" height="30" as="geometry" />
        </mxCell>
      </root>
    </mxGraphModel>
  </diagram>
</mxfile>
